<svg width="157" height="125" viewBox="0 0 157 125" fill="none" xmlns="http://www.w3.org/2000/svg">
<path d="M36.7159 75.0104V87.743H31.4895V75.6759C31.4895 71.7234 29.5241 69.809 26.1795 69.809C22.458 69.809 19.9495 72.0555 19.9495 76.5081V87.743H14.7231V65.5231H19.6983V68.3947C21.4125 66.3553 24.1303 65.2743 27.3913 65.2743C32.7432 65.2743 36.7147 68.3125 36.7147 75.0116L36.7159 75.0104Z" fill="#2F5CAF"/>
<path d="M57.0701 81.0278L59.7984 84.1956C57.8562 86.5405 54.7558 87.7743 50.9529 87.7743C43.5541 87.7743 38.7604 83.044 38.7604 76.5035C38.7604 69.963 43.5553 65.2743 50.1272 65.2743C56.2851 65.2743 61.2451 69.3877 61.287 76.2569L44.3822 79.5474C45.4567 82.0567 47.8536 83.4143 51.0773 83.4143C53.5568 83.4143 55.4582 82.6331 57.0701 81.0289V81.0278ZM43.7611 76.2153V76.2569L56.2432 73.8715C55.5408 71.1979 53.2265 69.3877 50.126 69.3877C46.365 69.3877 43.7611 72.0208 43.7611 76.2164V76.2153Z" fill="#2F5CAF"/>
<path d="M63.371 76.4768C63.371 69.8703 68.3497 65.2048 75.3612 65.2048C79.6758 65.2048 83.1193 66.9803 84.8207 70.3252L80.8376 72.6377C79.5095 70.5324 77.5185 69.5821 75.3193 69.5821C71.5025 69.5821 68.5985 72.2245 68.5985 76.478C68.5985 80.7315 71.5025 83.3727 75.3193 83.3727C77.5185 83.3727 79.5095 82.4236 80.8376 80.3171L84.8207 82.6296C83.1193 85.9328 79.6758 87.7905 75.3612 87.7905C68.3497 87.7905 63.371 83.0833 63.371 76.4768Z" fill="#2F5CAF"/>
<path d="M115.307 82.5324C114.503 83.1632 113.447 83.4584 112.348 83.4584C110.362 83.4584 109.221 82.2801 109.221 80.0938V69.4097H115.265V65.2037H109.221V60.0718H103.937V65.2037H92.1881V60.0718H86.9047V80.2199C86.9047 85.184 89.7366 87.7917 94.6815 87.7917C96.5829 87.7917 98.4855 87.2871 99.7532 86.2778L98.2739 82.5336C97.4703 83.1644 96.4143 83.4595 95.3153 83.4595C93.3289 83.4595 92.1881 82.2813 92.1881 80.0949V69.4109H103.937V80.2211C103.937 85.1852 106.769 87.7928 111.714 87.7928C113.616 87.7928 115.518 87.2882 116.786 86.279L115.307 82.5347V82.5324Z" fill="#2F5CAF"/>
<path d="M142.277 65.5255V87.5023H137.356V84.6632C135.62 86.7616 133.056 87.7905 130.037 87.7905C123.586 87.7905 118.871 83.3461 118.871 76.5139C118.871 69.6817 123.586 65.2789 130.037 65.2789C132.849 65.2789 135.329 66.2257 137.108 68.2014V65.5266H142.277V65.5255ZM137.19 76.5139C137.19 72.316 134.378 69.6412 130.615 69.6412C126.851 69.6412 124.081 72.316 124.081 76.5139C124.081 80.7118 126.893 83.3866 130.615 83.3866C134.336 83.3866 137.19 80.7118 137.19 76.5139Z" fill="#2F5CAF"/>
</svg>
