<svg width="116" height="55" viewBox="0 0 116 55" fill="none" xmlns="http://www.w3.org/2000/svg">
<path d="M7.05269 50.5365C10.4855 51.7536 13.7513 51.6235 16.3203 50.1066L15.244 53.1434L20.481 55L28.7392 31.7063L33.5132 18.2402C36.025 11.1553 32.9833 6.45986 27.3504 4.46347C23.9176 3.24643 20.6518 3.37648 18.0828 4.89342L19.1591 1.85663L13.9221 0L5.66386 23.2937L0.889816 36.7598C-1.62192 43.8447 1.41973 48.5401 7.05269 50.5365ZM24.3738 8.80757C27.8939 10.0557 29.2449 12.813 27.7629 16.994L23.311 29.5498L19.0989 41.432C17.4296 46.141 13.9464 47.5813 10.0303 46.1924C6.51016 44.9443 5.15918 42.187 6.64118 38.006L11.093 25.4502L15.3051 13.568C16.9744 8.85901 20.4577 7.41874 24.3738 8.80757Z" fill="#F5AE51"/>
<path d="M52.2882 36.1766V43.8127H49.1689V36.5765C49.1689 34.2055 47.9965 33.0583 46.0001 33.0583C43.7795 33.0583 42.282 34.4054 42.282 37.0763V43.8137H39.1627V30.4883H42.1325V32.21C43.1555 30.9872 44.7772 30.3389 46.7241 30.3389C49.9181 30.3389 52.2891 32.1606 52.2891 36.1786L52.2882 36.1766Z" fill="#2F5CAF"/>
<path d="M64.4363 39.7859L66.0649 41.6853C64.9051 43.0916 63.0552 43.8311 60.7861 43.8311C56.3702 43.8311 53.5091 40.9943 53.5091 37.0723C53.5091 33.1504 56.3702 30.3378 60.2931 30.3378C63.9685 30.3378 66.9286 32.8049 66.9539 36.9239L56.8642 38.8969C57.5057 40.4013 58.9363 41.2155 60.8609 41.2155C62.3409 41.2155 63.4755 40.7468 64.4383 39.785L64.4363 39.7859ZM56.4935 36.8996V36.9239L63.9433 35.4933C63.524 33.89 62.1429 32.8049 60.2921 32.8049C58.0473 32.8049 56.4935 34.384 56.4935 36.8996Z" fill="#2F5CAF"/>
<path d="M68.1971 37.0559C68.1971 33.0942 71.1689 30.2961 75.3528 30.2961C77.9277 30.2961 79.9833 31.3608 80.9984 33.3669L78.6216 34.7538C77.8296 33.4911 76.6407 32.9214 75.3286 32.9214C73.0507 32.9214 71.3174 34.5063 71.3174 37.0569C71.3174 39.6074 73.0507 41.1923 75.3286 41.1923C76.6407 41.1923 77.8296 40.6226 78.6216 39.3599L80.9984 40.7468C79.9833 42.7277 77.9277 43.8418 75.3528 43.8418C71.1679 43.8418 68.1971 41.0195 68.1971 37.0569V37.0559Z" fill="#2F5CAF"/>
<path d="M99.1939 40.6876C98.7145 41.0661 98.0836 41.2427 97.4285 41.2427C96.2426 41.2427 95.5622 40.5362 95.5622 39.225V32.8176H99.1697V30.2951H95.5622V27.2176H92.409V30.2951H85.3959V27.2176H82.2426V39.3007C82.2426 42.2773 83.9323 43.8418 86.8837 43.8418C88.0192 43.8418 89.1538 43.539 89.9108 42.9334L89.0276 40.6886C88.5482 41.0671 87.9173 41.2437 87.2622 41.2437C86.0762 41.2437 85.3959 40.5372 85.3959 39.226V32.8185H92.409V39.3017C92.409 42.2783 94.0987 43.8428 97.05 43.8428C98.1856 43.8428 99.3201 43.54 100.077 42.9344L99.1939 40.6895V40.6876Z" fill="#2F5CAF"/>
<path d="M115.29 30.4883V43.6681H112.353V41.9648C111.317 43.2236 109.786 43.8409 107.985 43.8409C104.135 43.8409 101.321 41.1758 101.321 37.0782C101.321 32.9806 104.135 30.3408 107.985 30.3408C109.663 30.3408 111.144 30.9085 112.206 32.0926V30.4883H115.291H115.29ZM112.254 37.0782C112.254 34.5606 110.576 32.9563 108.331 32.9563C106.085 32.9563 104.431 34.5606 104.431 37.0782C104.431 39.5957 106.109 41.2 108.331 41.2C110.552 41.2 112.254 39.5957 112.254 37.0782Z" fill="#2F5CAF"/>
</svg>
